<mxfile host="app.diagrams.net" modified="2021-11-29T03:47:24.895Z" agent="5.0 (Windows NT 10.0; Win64; x64) AppleWebKit/537.36 (KHTML, like Gecko) Chrome/96.0.4664.45 Safari/537.36 Edg/96.0.1054.29" etag="mb6QzAs05DQYXs_xNtkg" version="15.7.3" type="github">
  <diagram name="Page-1" id="74e2e168-ea6b-b213-b513-2b3c1d86103e">
    <mxGraphModel dx="1483" dy="857" grid="1" gridSize="10" guides="1" tooltips="1" connect="1" arrows="1" fold="1" page="1" pageScale="1" pageWidth="1100" pageHeight="850" background="none" math="0" shadow="0">
      <root>
        <mxCell id="0" />
        <mxCell id="1" parent="0" />
        <mxCell id="77e6c97f196da883-1" value="内测前工作流程" style="swimlane;html=1;childLayout=stackLayout;startSize=20;rounded=0;shadow=0;labelBackgroundColor=none;strokeWidth=1;fontFamily=Verdana;fontSize=8;align=center;" parent="1" vertex="1">
          <mxGeometry x="70" y="40" width="2280" height="1450" as="geometry" />
        </mxCell>
        <mxCell id="77e6c97f196da883-2" value="审核" style="swimlane;html=1;startSize=20;" parent="77e6c97f196da883-1" vertex="1">
          <mxGeometry y="20" width="170" height="1430" as="geometry" />
        </mxCell>
        <mxCell id="MG7vjCwYbkdOlMrGwm35-47" value="合理性分析" style="shape=hexagon;perimeter=hexagonPerimeter2;whiteSpace=wrap;html=1;fixedSize=1;fontSize=11;" vertex="1" parent="77e6c97f196da883-2">
          <mxGeometry x="40" y="38.5" width="90" height="28" as="geometry" />
        </mxCell>
        <mxCell id="MG7vjCwYbkdOlMrGwm35-117" value="合理性分析" style="shape=hexagon;perimeter=hexagonPerimeter2;whiteSpace=wrap;html=1;fixedSize=1;fontSize=11;" vertex="1" parent="77e6c97f196da883-2">
          <mxGeometry x="40" y="196" width="90" height="28" as="geometry" />
        </mxCell>
        <mxCell id="MG7vjCwYbkdOlMrGwm35-119" value="合理性分析" style="shape=hexagon;perimeter=hexagonPerimeter2;whiteSpace=wrap;html=1;fixedSize=1;fontSize=11;" vertex="1" parent="77e6c97f196da883-2">
          <mxGeometry x="40" y="486" width="90" height="28" as="geometry" />
        </mxCell>
        <mxCell id="MG7vjCwYbkdOlMrGwm35-125" value="合理性分析" style="shape=hexagon;perimeter=hexagonPerimeter2;whiteSpace=wrap;html=1;fixedSize=1;fontSize=11;" vertex="1" parent="77e6c97f196da883-2">
          <mxGeometry x="40" y="990" width="90" height="28" as="geometry" />
        </mxCell>
        <mxCell id="77e6c97f196da883-3" value="内部审核" style="swimlane;html=1;startSize=20;" parent="77e6c97f196da883-1" vertex="1">
          <mxGeometry x="170" y="20" width="210" height="1430" as="geometry" />
        </mxCell>
        <mxCell id="MG7vjCwYbkdOlMrGwm35-44" value="合理性分析" style="shape=hexagon;perimeter=hexagonPerimeter2;whiteSpace=wrap;html=1;fixedSize=1;fontSize=11;" vertex="1" parent="77e6c97f196da883-3">
          <mxGeometry x="40" y="196" width="90" height="28" as="geometry" />
        </mxCell>
        <mxCell id="MG7vjCwYbkdOlMrGwm35-71" style="edgeStyle=orthogonalEdgeStyle;rounded=0;orthogonalLoop=1;jettySize=auto;html=1;entryX=0.5;entryY=0;entryDx=0;entryDy=0;fontSize=11;" edge="1" parent="77e6c97f196da883-3" source="MG7vjCwYbkdOlMrGwm35-45" target="MG7vjCwYbkdOlMrGwm35-69">
          <mxGeometry relative="1" as="geometry">
            <Array as="points">
              <mxPoint x="103" y="87" />
              <mxPoint x="103" y="87" />
            </Array>
          </mxGeometry>
        </mxCell>
        <mxCell id="MG7vjCwYbkdOlMrGwm35-45" value="合理性分析" style="shape=hexagon;perimeter=hexagonPerimeter2;whiteSpace=wrap;html=1;fixedSize=1;fontSize=11;" vertex="1" parent="77e6c97f196da883-3">
          <mxGeometry x="50" y="38.5" width="90" height="28" as="geometry" />
        </mxCell>
        <mxCell id="MG7vjCwYbkdOlMrGwm35-62" value="合理性分析" style="shape=hexagon;perimeter=hexagonPerimeter2;whiteSpace=wrap;html=1;fixedSize=1;fontSize=11;" vertex="1" parent="77e6c97f196da883-3">
          <mxGeometry x="40" y="460" width="90" height="28" as="geometry" />
        </mxCell>
        <mxCell id="MG7vjCwYbkdOlMrGwm35-67" value="机制初稿" style="swimlane;fontSize=11;" vertex="1" parent="77e6c97f196da883-3">
          <mxGeometry x="15" y="260" width="155" height="150" as="geometry" />
        </mxCell>
        <mxCell id="MG7vjCwYbkdOlMrGwm35-74" value="技术方案" style="rounded=1;whiteSpace=wrap;html=1;fontSize=11;" vertex="1" parent="MG7vjCwYbkdOlMrGwm35-67">
          <mxGeometry x="17.5" y="40" width="120" height="20" as="geometry" />
        </mxCell>
        <mxCell id="MG7vjCwYbkdOlMrGwm35-75" value="运营方案" style="rounded=1;whiteSpace=wrap;html=1;fontSize=11;" vertex="1" parent="MG7vjCwYbkdOlMrGwm35-67">
          <mxGeometry x="17.5" y="80" width="120" height="20" as="geometry" />
        </mxCell>
        <mxCell id="MG7vjCwYbkdOlMrGwm35-76" value="设计方案" style="rounded=1;whiteSpace=wrap;html=1;fontSize=11;" vertex="1" parent="MG7vjCwYbkdOlMrGwm35-67">
          <mxGeometry x="17.5" y="120" width="120" height="20" as="geometry" />
        </mxCell>
        <mxCell id="MG7vjCwYbkdOlMrGwm35-69" value="策划草稿" style="swimlane;fontSize=11;startSize=23;" vertex="1" parent="77e6c97f196da883-3">
          <mxGeometry x="15" y="90" width="175" height="50" as="geometry" />
        </mxCell>
        <mxCell id="MG7vjCwYbkdOlMrGwm35-70" value="角色草稿" style="text;html=1;align=center;verticalAlign=middle;resizable=0;points=[];autosize=1;strokeColor=none;fillColor=none;fontSize=11;" vertex="1" parent="MG7vjCwYbkdOlMrGwm35-69">
          <mxGeometry x="57.5" y="30" width="60" height="20" as="geometry" />
        </mxCell>
        <mxCell id="MG7vjCwYbkdOlMrGwm35-66" style="edgeStyle=orthogonalEdgeStyle;rounded=0;orthogonalLoop=1;jettySize=auto;html=1;fontSize=11;entryX=0.5;entryY=0;entryDx=0;entryDy=0;" edge="1" parent="77e6c97f196da883-3" source="MG7vjCwYbkdOlMrGwm35-44" target="MG7vjCwYbkdOlMrGwm35-67">
          <mxGeometry relative="1" as="geometry">
            <mxPoint x="85" y="250" as="targetPoint" />
            <Array as="points">
              <mxPoint x="93" y="244" />
            </Array>
          </mxGeometry>
        </mxCell>
        <mxCell id="MG7vjCwYbkdOlMrGwm35-78" value="道具初稿" style="swimlane;fontSize=11;" vertex="1" parent="77e6c97f196da883-3">
          <mxGeometry x="17.5" y="590" width="155" height="150" as="geometry" />
        </mxCell>
        <mxCell id="MG7vjCwYbkdOlMrGwm35-79" value="技术方案" style="rounded=1;whiteSpace=wrap;html=1;fontSize=11;" vertex="1" parent="MG7vjCwYbkdOlMrGwm35-78">
          <mxGeometry x="17.5" y="40" width="120" height="20" as="geometry" />
        </mxCell>
        <mxCell id="MG7vjCwYbkdOlMrGwm35-80" value="运营方案" style="rounded=1;whiteSpace=wrap;html=1;fontSize=11;" vertex="1" parent="MG7vjCwYbkdOlMrGwm35-78">
          <mxGeometry x="17.5" y="80" width="120" height="20" as="geometry" />
        </mxCell>
        <mxCell id="MG7vjCwYbkdOlMrGwm35-81" value="设计方案" style="rounded=1;whiteSpace=wrap;html=1;fontSize=11;" vertex="1" parent="MG7vjCwYbkdOlMrGwm35-78">
          <mxGeometry x="17.5" y="120" width="120" height="20" as="geometry" />
        </mxCell>
        <mxCell id="MG7vjCwYbkdOlMrGwm35-77" style="edgeStyle=orthogonalEdgeStyle;rounded=0;orthogonalLoop=1;jettySize=auto;html=1;fontSize=11;entryX=0.5;entryY=0;entryDx=0;entryDy=0;" edge="1" parent="77e6c97f196da883-3" source="MG7vjCwYbkdOlMrGwm35-62" target="MG7vjCwYbkdOlMrGwm35-78">
          <mxGeometry relative="1" as="geometry">
            <mxPoint x="85" y="590" as="targetPoint" />
            <Array as="points">
              <mxPoint x="95" y="560" />
              <mxPoint x="95" y="560" />
            </Array>
          </mxGeometry>
        </mxCell>
        <mxCell id="6iCR6SdlAm49ne0eKqpE-16" style="edgeStyle=orthogonalEdgeStyle;rounded=0;orthogonalLoop=1;jettySize=auto;html=1;fontSize=11;entryX=0;entryY=0.037;entryDx=0;entryDy=0;entryPerimeter=0;exitX=0.5;exitY=1;exitDx=0;exitDy=0;" parent="77e6c97f196da883-1" source="MG7vjCwYbkdOlMrGwm35-47" target="6iCR6SdlAm49ne0eKqpE-15" edge="1">
          <mxGeometry relative="1" as="geometry">
            <mxPoint x="80" y="190" as="targetPoint" />
            <Array as="points">
              <mxPoint x="85" y="167" />
            </Array>
            <mxPoint x="80.05882352941194" y="142.4595588235294" as="sourcePoint" />
          </mxGeometry>
        </mxCell>
        <mxCell id="77e6c97f196da883-4" value="策划" style="swimlane;html=1;startSize=20;" parent="77e6c97f196da883-1" vertex="1">
          <mxGeometry x="380" y="20" width="330" height="1430" as="geometry" />
        </mxCell>
        <mxCell id="77e6c97f196da883-8" value="暂定角色" style="rounded=1;whiteSpace=wrap;html=1;shadow=0;labelBackgroundColor=none;strokeWidth=1;fontFamily=Verdana;fontSize=8;align=center;" parent="77e6c97f196da883-4" vertex="1">
          <mxGeometry x="110" y="30" width="100" height="45" as="geometry" />
        </mxCell>
        <mxCell id="6iCR6SdlAm49ne0eKqpE-15" value="初版策划" style="swimlane;fontSize=11;" parent="77e6c97f196da883-4" vertex="1">
          <mxGeometry x="50" y="100" width="240" height="860" as="geometry" />
        </mxCell>
        <mxCell id="6iCR6SdlAm49ne0eKqpE-18" value="机制策划测试" style="rounded=1;whiteSpace=wrap;html=1;fontSize=11;" parent="6iCR6SdlAm49ne0eKqpE-15" vertex="1">
          <mxGeometry x="60" y="100" width="120" height="20" as="geometry" />
        </mxCell>
        <mxCell id="6iCR6SdlAm49ne0eKqpE-19" value="道具策划测试" style="rounded=1;whiteSpace=wrap;html=1;fontSize=11;" parent="6iCR6SdlAm49ne0eKqpE-15" vertex="1">
          <mxGeometry x="60" y="390" width="120" height="20" as="geometry" />
        </mxCell>
        <mxCell id="MG7vjCwYbkdOlMrGwm35-113" value="机制策划" style="rounded=1;whiteSpace=wrap;html=1;fontSize=11;" vertex="1" parent="6iCR6SdlAm49ne0eKqpE-15">
          <mxGeometry x="60" y="40" width="120" height="20" as="geometry" />
        </mxCell>
        <mxCell id="MG7vjCwYbkdOlMrGwm35-120" value="道具策划" style="rounded=1;whiteSpace=wrap;html=1;fontSize=11;" vertex="1" parent="6iCR6SdlAm49ne0eKqpE-15">
          <mxGeometry x="60" y="330" width="120" height="20" as="geometry" />
        </mxCell>
        <mxCell id="MG7vjCwYbkdOlMrGwm35-127" value="内测策划稿" style="swimlane;fontSize=11;" vertex="1" parent="77e6c97f196da883-4">
          <mxGeometry x="50" y="1050" width="240" height="180" as="geometry" />
        </mxCell>
        <mxCell id="MG7vjCwYbkdOlMrGwm35-128" value="初版策划" style="shape=process;whiteSpace=wrap;html=1;backgroundOutline=1;fontSize=11;" vertex="1" parent="MG7vjCwYbkdOlMrGwm35-127">
          <mxGeometry x="30" y="40" width="180" height="30" as="geometry" />
        </mxCell>
        <mxCell id="MG7vjCwYbkdOlMrGwm35-129" value="NPC策划" style="rounded=1;whiteSpace=wrap;html=1;fontSize=11;" vertex="1" parent="MG7vjCwYbkdOlMrGwm35-127">
          <mxGeometry x="55" y="100" width="120" height="20" as="geometry" />
        </mxCell>
        <mxCell id="MG7vjCwYbkdOlMrGwm35-130" value="文字类策划" style="rounded=1;whiteSpace=wrap;html=1;fontSize=11;" vertex="1" parent="MG7vjCwYbkdOlMrGwm35-127">
          <mxGeometry x="55" y="145" width="120" height="20" as="geometry" />
        </mxCell>
        <mxCell id="MG7vjCwYbkdOlMrGwm35-19" style="edgeStyle=orthogonalEdgeStyle;rounded=0;orthogonalLoop=1;jettySize=auto;html=1;entryX=0;entryY=0.5;entryDx=0;entryDy=0;fontSize=11;" edge="1" parent="77e6c97f196da883-1" source="6iCR6SdlAm49ne0eKqpE-18" target="MG7vjCwYbkdOlMrGwm35-18">
          <mxGeometry relative="1" as="geometry" />
        </mxCell>
        <mxCell id="MG7vjCwYbkdOlMrGwm35-21" style="edgeStyle=orthogonalEdgeStyle;rounded=0;orthogonalLoop=1;jettySize=auto;html=1;fontSize=11;entryX=1;entryY=0.5;entryDx=0;entryDy=0;exitX=1;exitY=0.5;exitDx=0;exitDy=0;" edge="1" parent="77e6c97f196da883-1" source="6iCR6SdlAm49ne0eKqpE-63" target="MG7vjCwYbkdOlMrGwm35-113">
          <mxGeometry relative="1" as="geometry">
            <mxPoint x="990" y="160" as="targetPoint" />
            <Array as="points">
              <mxPoint x="1090" y="300" />
              <mxPoint x="1090" y="200" />
              <mxPoint x="650" y="200" />
              <mxPoint x="650" y="170" />
            </Array>
          </mxGeometry>
        </mxCell>
        <mxCell id="MG7vjCwYbkdOlMrGwm35-23" style="edgeStyle=orthogonalEdgeStyle;rounded=0;orthogonalLoop=1;jettySize=auto;html=1;fontSize=11;entryX=0;entryY=0.5;entryDx=0;entryDy=0;" edge="1" parent="77e6c97f196da883-1" source="6iCR6SdlAm49ne0eKqpE-18" target="MG7vjCwYbkdOlMrGwm35-22">
          <mxGeometry relative="1" as="geometry">
            <mxPoint x="1270" y="180" as="targetPoint" />
            <Array as="points">
              <mxPoint x="650" y="230" />
              <mxPoint x="650" y="260" />
              <mxPoint x="1180" y="260" />
              <mxPoint x="1180" y="224" />
            </Array>
          </mxGeometry>
        </mxCell>
        <mxCell id="MG7vjCwYbkdOlMrGwm35-27" style="edgeStyle=orthogonalEdgeStyle;rounded=0;orthogonalLoop=1;jettySize=auto;html=1;fontSize=11;entryX=1;entryY=0.5;entryDx=0;entryDy=0;" edge="1" parent="77e6c97f196da883-1" source="6iCR6SdlAm49ne0eKqpE-73" target="MG7vjCwYbkdOlMrGwm35-28">
          <mxGeometry relative="1" as="geometry">
            <mxPoint x="1040" y="390" as="targetPoint" />
            <Array as="points">
              <mxPoint x="1180" y="305" />
              <mxPoint x="1180" y="385" />
            </Array>
          </mxGeometry>
        </mxCell>
        <mxCell id="MG7vjCwYbkdOlMrGwm35-31" style="edgeStyle=orthogonalEdgeStyle;rounded=0;orthogonalLoop=1;jettySize=auto;html=1;fontSize=11;exitX=1;exitY=0.5;exitDx=0;exitDy=0;" edge="1" parent="77e6c97f196da883-1" source="6iCR6SdlAm49ne0eKqpE-73">
          <mxGeometry relative="1" as="geometry">
            <mxPoint x="610" y="170" as="targetPoint" />
            <Array as="points">
              <mxPoint x="1610" y="305" />
              <mxPoint x="1610" y="200" />
              <mxPoint x="650" y="200" />
              <mxPoint x="650" y="170" />
            </Array>
          </mxGeometry>
        </mxCell>
        <mxCell id="77e6c97f196da883-6" value="落地" style="swimlane;html=1;startSize=20;" parent="77e6c97f196da883-1" vertex="1">
          <mxGeometry x="710" y="20" width="430" height="1430" as="geometry" />
        </mxCell>
        <mxCell id="6iCR6SdlAm49ne0eKqpE-63" value="运营设计" style="rounded=1;whiteSpace=wrap;html=1;fontSize=11;" parent="77e6c97f196da883-6" vertex="1">
          <mxGeometry x="165" y="270" width="120" height="20" as="geometry" />
        </mxCell>
        <mxCell id="6iCR6SdlAm49ne0eKqpE-65" value="&lt;font style=&quot;font-size: 11px&quot;&gt;无法完成&lt;/font&gt;" style="text;html=1;strokeColor=none;fillColor=none;align=center;verticalAlign=middle;whiteSpace=wrap;rounded=0;fontSize=8;" parent="77e6c97f196da883-6" vertex="1">
          <mxGeometry x="275" y="275" width="90" height="30" as="geometry" />
        </mxCell>
        <mxCell id="6iCR6SdlAm49ne0eKqpE-66" value="&lt;font style=&quot;font-size: 11px&quot;&gt;完成&lt;/font&gt;" style="text;html=1;strokeColor=none;fillColor=none;align=center;verticalAlign=middle;whiteSpace=wrap;rounded=0;fontSize=8;" parent="77e6c97f196da883-6" vertex="1">
          <mxGeometry x="115" y="275" width="50" height="30" as="geometry" />
        </mxCell>
        <mxCell id="6iCR6SdlAm49ne0eKqpE-67" value="落地产出" style="swimlane;fontSize=11;startSize=23;" parent="77e6c97f196da883-6" vertex="1">
          <mxGeometry x="65" y="810" width="300" height="200" as="geometry" />
        </mxCell>
        <mxCell id="6iCR6SdlAm49ne0eKqpE-68" value="机制相关运营方案" style="rounded=1;whiteSpace=wrap;html=1;fontSize=11;" parent="6iCR6SdlAm49ne0eKqpE-67" vertex="1">
          <mxGeometry x="40" y="40" width="210" height="20" as="geometry" />
        </mxCell>
        <mxCell id="MG7vjCwYbkdOlMrGwm35-30" value="机制相关设计实体" style="rounded=1;whiteSpace=wrap;html=1;fontSize=11;" vertex="1" parent="6iCR6SdlAm49ne0eKqpE-67">
          <mxGeometry x="40" y="80" width="210" height="20" as="geometry" />
        </mxCell>
        <mxCell id="MG7vjCwYbkdOlMrGwm35-110" value="道具实体" style="rounded=1;whiteSpace=wrap;html=1;fontSize=11;" vertex="1" parent="6iCR6SdlAm49ne0eKqpE-67">
          <mxGeometry x="40" y="120" width="210" height="20" as="geometry" />
        </mxCell>
        <mxCell id="6iCR6SdlAm49ne0eKqpE-69" style="edgeStyle=orthogonalEdgeStyle;rounded=0;orthogonalLoop=1;jettySize=auto;html=1;fontSize=11;entryX=0;entryY=0.5;entryDx=0;entryDy=0;" parent="77e6c97f196da883-6" source="6iCR6SdlAm49ne0eKqpE-63" target="6iCR6SdlAm49ne0eKqpE-68" edge="1">
          <mxGeometry relative="1" as="geometry">
            <mxPoint x="40" y="400" as="targetPoint" />
            <Array as="points">
              <mxPoint x="20" y="280" />
              <mxPoint x="20" y="860" />
            </Array>
          </mxGeometry>
        </mxCell>
        <mxCell id="MG7vjCwYbkdOlMrGwm35-20" style="edgeStyle=orthogonalEdgeStyle;rounded=0;orthogonalLoop=1;jettySize=auto;html=1;entryX=0.5;entryY=0;entryDx=0;entryDy=0;fontSize=11;" edge="1" parent="77e6c97f196da883-6" source="MG7vjCwYbkdOlMrGwm35-18" target="6iCR6SdlAm49ne0eKqpE-63">
          <mxGeometry relative="1" as="geometry" />
        </mxCell>
        <mxCell id="MG7vjCwYbkdOlMrGwm35-18" value="可行性分析" style="shape=hexagon;perimeter=hexagonPerimeter2;whiteSpace=wrap;html=1;fixedSize=1;fontSize=11;" vertex="1" parent="77e6c97f196da883-6">
          <mxGeometry x="180" y="196" width="90" height="28" as="geometry" />
        </mxCell>
        <mxCell id="MG7vjCwYbkdOlMrGwm35-28" value="可行性分析" style="shape=hexagon;perimeter=hexagonPerimeter2;whiteSpace=wrap;html=1;fixedSize=1;fontSize=11;" vertex="1" parent="77e6c97f196da883-6">
          <mxGeometry x="180" y="351" width="90" height="28" as="geometry" />
        </mxCell>
        <mxCell id="MG7vjCwYbkdOlMrGwm35-29" style="edgeStyle=orthogonalEdgeStyle;rounded=0;orthogonalLoop=1;jettySize=auto;html=1;fontSize=11;entryX=0;entryY=0.5;entryDx=0;entryDy=0;" edge="1" parent="77e6c97f196da883-6" source="MG7vjCwYbkdOlMrGwm35-28" target="MG7vjCwYbkdOlMrGwm35-30">
          <mxGeometry relative="1" as="geometry">
            <mxPoint x="20" y="560" as="targetPoint" />
            <Array as="points">
              <mxPoint x="20" y="365" />
              <mxPoint x="20" y="900" />
            </Array>
          </mxGeometry>
        </mxCell>
        <mxCell id="MG7vjCwYbkdOlMrGwm35-107" value="可行性分析" style="shape=hexagon;perimeter=hexagonPerimeter2;whiteSpace=wrap;html=1;fixedSize=1;fontSize=11;" vertex="1" parent="77e6c97f196da883-6">
          <mxGeometry x="170" y="606" width="90" height="28" as="geometry" />
        </mxCell>
        <mxCell id="MG7vjCwYbkdOlMrGwm35-109" style="edgeStyle=orthogonalEdgeStyle;rounded=0;orthogonalLoop=1;jettySize=auto;html=1;fontSize=11;entryX=0;entryY=0.5;entryDx=0;entryDy=0;" edge="1" parent="77e6c97f196da883-6" source="MG7vjCwYbkdOlMrGwm35-107" target="MG7vjCwYbkdOlMrGwm35-110">
          <mxGeometry relative="1" as="geometry">
            <mxPoint x="20" y="940" as="targetPoint" />
            <Array as="points">
              <mxPoint x="20" y="620" />
              <mxPoint x="20" y="940" />
            </Array>
          </mxGeometry>
        </mxCell>
        <mxCell id="77e6c97f196da883-7" value="艺术设计" style="swimlane;html=1;startSize=20;" parent="77e6c97f196da883-1" vertex="1">
          <mxGeometry x="1140" y="20" width="570" height="1430" as="geometry" />
        </mxCell>
        <mxCell id="6iCR6SdlAm49ne0eKqpE-73" value="艺术设计" style="rounded=1;whiteSpace=wrap;html=1;fontSize=11;" parent="77e6c97f196da883-7" vertex="1">
          <mxGeometry x="225" y="275" width="120" height="20" as="geometry" />
        </mxCell>
        <mxCell id="6iCR6SdlAm49ne0eKqpE-75" value="&lt;font style=&quot;font-size: 11px&quot;&gt;无法完成&lt;/font&gt;" style="text;html=1;strokeColor=none;fillColor=none;align=center;verticalAlign=middle;whiteSpace=wrap;rounded=0;fontSize=8;" parent="77e6c97f196da883-7" vertex="1">
          <mxGeometry x="326" y="280" width="90" height="30" as="geometry" />
        </mxCell>
        <mxCell id="6iCR6SdlAm49ne0eKqpE-76" value="&lt;font style=&quot;font-size: 11px&quot;&gt;完成&lt;/font&gt;" style="text;html=1;strokeColor=none;fillColor=none;align=center;verticalAlign=middle;whiteSpace=wrap;rounded=0;fontSize=8;" parent="77e6c97f196da883-7" vertex="1">
          <mxGeometry x="175" y="280" width="50" height="30" as="geometry" />
        </mxCell>
        <mxCell id="6iCR6SdlAm49ne0eKqpE-79" value="设计产出" style="swimlane;fontSize=11;startSize=23;" parent="77e6c97f196da883-7" vertex="1">
          <mxGeometry x="110" y="810" width="300" height="200" as="geometry" />
        </mxCell>
        <mxCell id="6iCR6SdlAm49ne0eKqpE-80" value="机制相关设计文档" style="rounded=1;whiteSpace=wrap;html=1;fontSize=11;" parent="6iCR6SdlAm49ne0eKqpE-79" vertex="1">
          <mxGeometry x="40" y="40" width="210" height="20" as="geometry" />
        </mxCell>
        <mxCell id="MG7vjCwYbkdOlMrGwm35-101" value="道具相关设计文档" style="rounded=1;whiteSpace=wrap;html=1;fontSize=11;" vertex="1" parent="6iCR6SdlAm49ne0eKqpE-79">
          <mxGeometry x="40" y="90" width="210" height="20" as="geometry" />
        </mxCell>
        <mxCell id="MG7vjCwYbkdOlMrGwm35-26" style="edgeStyle=orthogonalEdgeStyle;rounded=0;orthogonalLoop=1;jettySize=auto;html=1;entryX=0.5;entryY=0;entryDx=0;entryDy=0;fontSize=11;" edge="1" parent="77e6c97f196da883-7" source="MG7vjCwYbkdOlMrGwm35-22" target="6iCR6SdlAm49ne0eKqpE-73">
          <mxGeometry relative="1" as="geometry" />
        </mxCell>
        <mxCell id="MG7vjCwYbkdOlMrGwm35-22" value="可行性分析" style="shape=hexagon;perimeter=hexagonPerimeter2;whiteSpace=wrap;html=1;fixedSize=1;fontSize=11;" vertex="1" parent="77e6c97f196da883-7">
          <mxGeometry x="240" y="190" width="90" height="28" as="geometry" />
        </mxCell>
        <mxCell id="MG7vjCwYbkdOlMrGwm35-53" value="可行性分析" style="shape=hexagon;perimeter=hexagonPerimeter2;whiteSpace=wrap;html=1;fixedSize=1;fontSize=11;" vertex="1" parent="77e6c97f196da883-7">
          <mxGeometry x="236" y="516" width="90" height="28" as="geometry" />
        </mxCell>
        <mxCell id="MG7vjCwYbkdOlMrGwm35-99" value="艺术设计" style="rounded=1;whiteSpace=wrap;html=1;fontSize=11;" vertex="1" parent="77e6c97f196da883-7">
          <mxGeometry x="221" y="610" width="120" height="20" as="geometry" />
        </mxCell>
        <mxCell id="MG7vjCwYbkdOlMrGwm35-98" style="edgeStyle=orthogonalEdgeStyle;rounded=0;orthogonalLoop=1;jettySize=auto;html=1;fontSize=11;entryX=0.5;entryY=0;entryDx=0;entryDy=0;" edge="1" parent="77e6c97f196da883-7" source="MG7vjCwYbkdOlMrGwm35-53" target="MG7vjCwYbkdOlMrGwm35-99">
          <mxGeometry relative="1" as="geometry">
            <mxPoint x="281" y="600" as="targetPoint" />
          </mxGeometry>
        </mxCell>
        <mxCell id="MG7vjCwYbkdOlMrGwm35-103" value="&lt;font style=&quot;font-size: 11px&quot;&gt;完成&lt;/font&gt;" style="text;html=1;strokeColor=none;fillColor=none;align=center;verticalAlign=middle;whiteSpace=wrap;rounded=0;fontSize=8;" vertex="1" parent="77e6c97f196da883-7">
          <mxGeometry x="171" y="620" width="50" height="30" as="geometry" />
        </mxCell>
        <mxCell id="MG7vjCwYbkdOlMrGwm35-104" value="&lt;font style=&quot;font-size: 11px&quot;&gt;无法完成&lt;/font&gt;" style="text;html=1;strokeColor=none;fillColor=none;align=center;verticalAlign=middle;whiteSpace=wrap;rounded=0;fontSize=8;" vertex="1" parent="77e6c97f196da883-7">
          <mxGeometry x="338.5" y="620" width="65" height="30" as="geometry" />
        </mxCell>
        <mxCell id="MG7vjCwYbkdOlMrGwm35-32" value="技术" style="swimlane;html=1;startSize=20;" vertex="1" parent="77e6c97f196da883-1">
          <mxGeometry x="1710" y="20" width="570" height="1430" as="geometry" />
        </mxCell>
        <mxCell id="MG7vjCwYbkdOlMrGwm35-42" style="edgeStyle=orthogonalEdgeStyle;rounded=0;orthogonalLoop=1;jettySize=auto;html=1;entryX=0;entryY=0.5;entryDx=0;entryDy=0;fontSize=11;" edge="1" parent="MG7vjCwYbkdOlMrGwm35-32" source="MG7vjCwYbkdOlMrGwm35-33" target="MG7vjCwYbkdOlMrGwm35-37">
          <mxGeometry relative="1" as="geometry">
            <Array as="points">
              <mxPoint x="50" y="285" />
              <mxPoint x="50" y="870" />
            </Array>
          </mxGeometry>
        </mxCell>
        <mxCell id="MG7vjCwYbkdOlMrGwm35-33" value="技术研发" style="rounded=1;whiteSpace=wrap;html=1;fontSize=11;" vertex="1" parent="MG7vjCwYbkdOlMrGwm35-32">
          <mxGeometry x="225" y="275" width="120" height="20" as="geometry" />
        </mxCell>
        <mxCell id="MG7vjCwYbkdOlMrGwm35-34" value="&lt;font style=&quot;font-size: 11px&quot;&gt;无法完成&lt;/font&gt;" style="text;html=1;strokeColor=none;fillColor=none;align=center;verticalAlign=middle;whiteSpace=wrap;rounded=0;fontSize=8;" vertex="1" parent="MG7vjCwYbkdOlMrGwm35-32">
          <mxGeometry x="330" y="280" width="90" height="30" as="geometry" />
        </mxCell>
        <mxCell id="MG7vjCwYbkdOlMrGwm35-35" value="&lt;font style=&quot;font-size: 11px&quot;&gt;完成&lt;/font&gt;" style="text;html=1;strokeColor=none;fillColor=none;align=center;verticalAlign=middle;whiteSpace=wrap;rounded=0;fontSize=8;" vertex="1" parent="MG7vjCwYbkdOlMrGwm35-32">
          <mxGeometry x="175" y="280" width="50" height="30" as="geometry" />
        </mxCell>
        <mxCell id="MG7vjCwYbkdOlMrGwm35-36" value="技术产出" style="swimlane;fontSize=11;startSize=23;" vertex="1" parent="MG7vjCwYbkdOlMrGwm35-32">
          <mxGeometry x="120" y="820" width="300" height="200" as="geometry" />
        </mxCell>
        <mxCell id="MG7vjCwYbkdOlMrGwm35-37" value="机制逻辑组件" style="rounded=1;whiteSpace=wrap;html=1;fontSize=11;" vertex="1" parent="MG7vjCwYbkdOlMrGwm35-36">
          <mxGeometry x="40" y="40" width="210" height="20" as="geometry" />
        </mxCell>
        <mxCell id="MG7vjCwYbkdOlMrGwm35-64" value="道具组件" style="rounded=1;whiteSpace=wrap;html=1;fontSize=11;" vertex="1" parent="MG7vjCwYbkdOlMrGwm35-36">
          <mxGeometry x="40" y="90" width="210" height="20" as="geometry" />
        </mxCell>
        <mxCell id="MG7vjCwYbkdOlMrGwm35-38" style="edgeStyle=orthogonalEdgeStyle;rounded=0;orthogonalLoop=1;jettySize=auto;html=1;entryX=0.5;entryY=0;entryDx=0;entryDy=0;fontSize=11;" edge="1" parent="MG7vjCwYbkdOlMrGwm35-32" source="MG7vjCwYbkdOlMrGwm35-39" target="MG7vjCwYbkdOlMrGwm35-33">
          <mxGeometry relative="1" as="geometry" />
        </mxCell>
        <mxCell id="MG7vjCwYbkdOlMrGwm35-39" value="可行性分析" style="shape=hexagon;perimeter=hexagonPerimeter2;whiteSpace=wrap;html=1;fixedSize=1;fontSize=11;" vertex="1" parent="MG7vjCwYbkdOlMrGwm35-32">
          <mxGeometry x="240" y="190" width="90" height="28" as="geometry" />
        </mxCell>
        <mxCell id="MG7vjCwYbkdOlMrGwm35-55" value="可行性分析" style="shape=hexagon;perimeter=hexagonPerimeter2;whiteSpace=wrap;html=1;fixedSize=1;fontSize=11;" vertex="1" parent="MG7vjCwYbkdOlMrGwm35-32">
          <mxGeometry x="240" y="510" width="90" height="28" as="geometry" />
        </mxCell>
        <mxCell id="MG7vjCwYbkdOlMrGwm35-58" value="技术研发" style="rounded=1;whiteSpace=wrap;html=1;fontSize=11;" vertex="1" parent="MG7vjCwYbkdOlMrGwm35-32">
          <mxGeometry x="225" y="600" width="120" height="20" as="geometry" />
        </mxCell>
        <mxCell id="MG7vjCwYbkdOlMrGwm35-57" style="edgeStyle=orthogonalEdgeStyle;rounded=0;orthogonalLoop=1;jettySize=auto;html=1;fontSize=11;entryX=0.5;entryY=0;entryDx=0;entryDy=0;" edge="1" parent="MG7vjCwYbkdOlMrGwm35-32" source="MG7vjCwYbkdOlMrGwm35-55" target="MG7vjCwYbkdOlMrGwm35-58">
          <mxGeometry relative="1" as="geometry">
            <mxPoint x="285" y="600" as="targetPoint" />
          </mxGeometry>
        </mxCell>
        <mxCell id="MG7vjCwYbkdOlMrGwm35-63" style="edgeStyle=orthogonalEdgeStyle;rounded=0;orthogonalLoop=1;jettySize=auto;html=1;fontSize=11;entryX=0;entryY=0.5;entryDx=0;entryDy=0;" edge="1" parent="MG7vjCwYbkdOlMrGwm35-32" source="MG7vjCwYbkdOlMrGwm35-58" target="MG7vjCwYbkdOlMrGwm35-64">
          <mxGeometry relative="1" as="geometry">
            <mxPoint x="50" y="990" as="targetPoint" />
            <Array as="points">
              <mxPoint x="50" y="610" />
              <mxPoint x="50" y="920" />
            </Array>
          </mxGeometry>
        </mxCell>
        <mxCell id="MG7vjCwYbkdOlMrGwm35-96" value="&lt;font style=&quot;font-size: 11px&quot;&gt;完成&lt;/font&gt;" style="text;html=1;strokeColor=none;fillColor=none;align=center;verticalAlign=middle;whiteSpace=wrap;rounded=0;fontSize=8;" vertex="1" parent="MG7vjCwYbkdOlMrGwm35-32">
          <mxGeometry x="175" y="610" width="50" height="30" as="geometry" />
        </mxCell>
        <mxCell id="MG7vjCwYbkdOlMrGwm35-97" value="&lt;font style=&quot;font-size: 11px&quot;&gt;无法完成&lt;/font&gt;" style="text;html=1;strokeColor=none;fillColor=none;align=center;verticalAlign=middle;whiteSpace=wrap;rounded=0;fontSize=8;" vertex="1" parent="MG7vjCwYbkdOlMrGwm35-32">
          <mxGeometry x="345" y="610" width="65" height="30" as="geometry" />
        </mxCell>
        <mxCell id="MG7vjCwYbkdOlMrGwm35-40" style="edgeStyle=orthogonalEdgeStyle;rounded=0;orthogonalLoop=1;jettySize=auto;html=1;entryX=0;entryY=0.5;entryDx=0;entryDy=0;fontSize=11;exitX=1;exitY=0.5;exitDx=0;exitDy=0;" edge="1" parent="77e6c97f196da883-1" source="6iCR6SdlAm49ne0eKqpE-18" target="MG7vjCwYbkdOlMrGwm35-39">
          <mxGeometry relative="1" as="geometry">
            <Array as="points">
              <mxPoint x="650" y="230" />
              <mxPoint x="650" y="260" />
              <mxPoint x="1830" y="260" />
              <mxPoint x="1830" y="224" />
            </Array>
          </mxGeometry>
        </mxCell>
        <mxCell id="MG7vjCwYbkdOlMrGwm35-41" style="edgeStyle=orthogonalEdgeStyle;rounded=0;orthogonalLoop=1;jettySize=auto;html=1;entryX=0;entryY=0.5;entryDx=0;entryDy=0;fontSize=11;exitX=0.5;exitY=1;exitDx=0;exitDy=0;" edge="1" parent="77e6c97f196da883-1" source="MG7vjCwYbkdOlMrGwm35-28" target="6iCR6SdlAm49ne0eKqpE-80">
          <mxGeometry relative="1" as="geometry">
            <mxPoint x="895" y="400" as="sourcePoint" />
            <Array as="points">
              <mxPoint x="935" y="420" />
              <mxPoint x="1180" y="420" />
              <mxPoint x="1180" y="880" />
            </Array>
          </mxGeometry>
        </mxCell>
        <mxCell id="MG7vjCwYbkdOlMrGwm35-43" style="edgeStyle=orthogonalEdgeStyle;rounded=0;orthogonalLoop=1;jettySize=auto;html=1;fontSize=11;entryX=1;entryY=0.5;entryDx=0;entryDy=0;exitX=1;exitY=0.5;exitDx=0;exitDy=0;" edge="1" parent="77e6c97f196da883-1" source="MG7vjCwYbkdOlMrGwm35-33" target="MG7vjCwYbkdOlMrGwm35-113">
          <mxGeometry relative="1" as="geometry">
            <mxPoint x="2070" y="150" as="targetPoint" />
            <Array as="points">
              <mxPoint x="2110" y="305" />
              <mxPoint x="2110" y="200" />
              <mxPoint x="650" y="200" />
              <mxPoint x="650" y="170" />
            </Array>
          </mxGeometry>
        </mxCell>
        <mxCell id="MG7vjCwYbkdOlMrGwm35-46" style="edgeStyle=orthogonalEdgeStyle;rounded=0;orthogonalLoop=1;jettySize=auto;html=1;entryX=1;entryY=0.5;entryDx=0;entryDy=0;fontSize=11;" edge="1" parent="77e6c97f196da883-1" source="77e6c97f196da883-8" target="MG7vjCwYbkdOlMrGwm35-45">
          <mxGeometry relative="1" as="geometry" />
        </mxCell>
        <mxCell id="MG7vjCwYbkdOlMrGwm35-52" style="edgeStyle=orthogonalEdgeStyle;rounded=0;orthogonalLoop=1;jettySize=auto;html=1;fontSize=11;entryX=0;entryY=0.5;entryDx=0;entryDy=0;" edge="1" parent="77e6c97f196da883-1" source="6iCR6SdlAm49ne0eKqpE-19" target="MG7vjCwYbkdOlMrGwm35-53">
          <mxGeometry relative="1" as="geometry">
            <mxPoint x="820" y="550" as="targetPoint" />
          </mxGeometry>
        </mxCell>
        <mxCell id="MG7vjCwYbkdOlMrGwm35-56" style="edgeStyle=orthogonalEdgeStyle;rounded=0;orthogonalLoop=1;jettySize=auto;html=1;fontSize=11;entryX=0;entryY=0.5;entryDx=0;entryDy=0;exitX=1;exitY=0.5;exitDx=0;exitDy=0;" edge="1" parent="77e6c97f196da883-1" source="6iCR6SdlAm49ne0eKqpE-19" target="MG7vjCwYbkdOlMrGwm35-55">
          <mxGeometry relative="1" as="geometry">
            <mxPoint x="1580" y="570" as="targetPoint" />
            <Array as="points">
              <mxPoint x="630" y="550" />
              <mxPoint x="630" y="600" />
              <mxPoint x="1840" y="600" />
              <mxPoint x="1840" y="544" />
            </Array>
          </mxGeometry>
        </mxCell>
        <mxCell id="MG7vjCwYbkdOlMrGwm35-65" style="edgeStyle=orthogonalEdgeStyle;rounded=0;orthogonalLoop=1;jettySize=auto;html=1;fontSize=11;entryX=1;entryY=0.5;entryDx=0;entryDy=0;exitX=1;exitY=0.5;exitDx=0;exitDy=0;" edge="1" parent="77e6c97f196da883-1" source="MG7vjCwYbkdOlMrGwm35-58" target="MG7vjCwYbkdOlMrGwm35-120">
          <mxGeometry relative="1" as="geometry">
            <mxPoint x="2040" y="420" as="targetPoint" />
            <Array as="points">
              <mxPoint x="2110" y="630" />
              <mxPoint x="2110" y="490" />
              <mxPoint x="650" y="490" />
              <mxPoint x="650" y="460" />
            </Array>
          </mxGeometry>
        </mxCell>
        <mxCell id="MG7vjCwYbkdOlMrGwm35-72" style="edgeStyle=orthogonalEdgeStyle;rounded=0;orthogonalLoop=1;jettySize=auto;html=1;entryX=1;entryY=0.5;entryDx=0;entryDy=0;fontSize=11;" edge="1" parent="77e6c97f196da883-1" source="MG7vjCwYbkdOlMrGwm35-69" target="MG7vjCwYbkdOlMrGwm35-47">
          <mxGeometry relative="1" as="geometry" />
        </mxCell>
        <mxCell id="MG7vjCwYbkdOlMrGwm35-105" style="edgeStyle=orthogonalEdgeStyle;rounded=0;orthogonalLoop=1;jettySize=auto;html=1;entryX=1;entryY=0.5;entryDx=0;entryDy=0;fontSize=11;" edge="1" parent="77e6c97f196da883-1" target="MG7vjCwYbkdOlMrGwm35-120">
          <mxGeometry relative="1" as="geometry">
            <mxPoint x="1481" y="640" as="sourcePoint" />
            <Array as="points">
              <mxPoint x="1610" y="640" />
              <mxPoint x="1610" y="490" />
              <mxPoint x="650" y="490" />
              <mxPoint x="650" y="460" />
            </Array>
          </mxGeometry>
        </mxCell>
        <mxCell id="MG7vjCwYbkdOlMrGwm35-106" style="edgeStyle=orthogonalEdgeStyle;rounded=0;orthogonalLoop=1;jettySize=auto;html=1;fontSize=11;entryX=1;entryY=0.5;entryDx=0;entryDy=0;" edge="1" parent="77e6c97f196da883-1" source="MG7vjCwYbkdOlMrGwm35-99" target="MG7vjCwYbkdOlMrGwm35-107">
          <mxGeometry relative="1" as="geometry">
            <mxPoint x="1010" y="640" as="targetPoint" />
          </mxGeometry>
        </mxCell>
        <mxCell id="MG7vjCwYbkdOlMrGwm35-108" style="edgeStyle=orthogonalEdgeStyle;rounded=0;orthogonalLoop=1;jettySize=auto;html=1;entryX=0;entryY=0.5;entryDx=0;entryDy=0;fontSize=11;exitX=0.5;exitY=1;exitDx=0;exitDy=0;" edge="1" parent="77e6c97f196da883-1" source="MG7vjCwYbkdOlMrGwm35-107" target="MG7vjCwYbkdOlMrGwm35-101">
          <mxGeometry relative="1" as="geometry">
            <Array as="points">
              <mxPoint x="925" y="700" />
              <mxPoint x="1090" y="700" />
              <mxPoint x="1090" y="930" />
            </Array>
          </mxGeometry>
        </mxCell>
        <mxCell id="MG7vjCwYbkdOlMrGwm35-115" style="edgeStyle=orthogonalEdgeStyle;rounded=0;orthogonalLoop=1;jettySize=auto;html=1;entryX=0.5;entryY=0;entryDx=0;entryDy=0;fontSize=11;" edge="1" parent="77e6c97f196da883-1" source="MG7vjCwYbkdOlMrGwm35-113" target="MG7vjCwYbkdOlMrGwm35-44">
          <mxGeometry relative="1" as="geometry">
            <Array as="points">
              <mxPoint x="550" y="190" />
              <mxPoint x="255" y="190" />
            </Array>
          </mxGeometry>
        </mxCell>
        <mxCell id="MG7vjCwYbkdOlMrGwm35-116" style="edgeStyle=orthogonalEdgeStyle;rounded=0;orthogonalLoop=1;jettySize=auto;html=1;fontSize=11;entryX=1;entryY=0.5;entryDx=0;entryDy=0;" edge="1" parent="77e6c97f196da883-1" source="MG7vjCwYbkdOlMrGwm35-67" target="MG7vjCwYbkdOlMrGwm35-117">
          <mxGeometry relative="1" as="geometry">
            <mxPoint x="120.00000000000011" y="355" as="targetPoint" />
          </mxGeometry>
        </mxCell>
        <mxCell id="MG7vjCwYbkdOlMrGwm35-118" style="edgeStyle=orthogonalEdgeStyle;rounded=0;orthogonalLoop=1;jettySize=auto;html=1;entryX=0;entryY=0.5;entryDx=0;entryDy=0;fontSize=11;exitX=0.5;exitY=1;exitDx=0;exitDy=0;" edge="1" parent="77e6c97f196da883-1" source="MG7vjCwYbkdOlMrGwm35-117" target="6iCR6SdlAm49ne0eKqpE-18">
          <mxGeometry relative="1" as="geometry">
            <Array as="points">
              <mxPoint x="85" y="260" />
              <mxPoint x="460" y="260" />
              <mxPoint x="460" y="230" />
            </Array>
          </mxGeometry>
        </mxCell>
        <mxCell id="MG7vjCwYbkdOlMrGwm35-121" style="edgeStyle=orthogonalEdgeStyle;rounded=0;orthogonalLoop=1;jettySize=auto;html=1;entryX=0.625;entryY=0;entryDx=0;entryDy=0;fontSize=11;" edge="1" parent="77e6c97f196da883-1" source="MG7vjCwYbkdOlMrGwm35-120" target="MG7vjCwYbkdOlMrGwm35-62">
          <mxGeometry relative="1" as="geometry" />
        </mxCell>
        <mxCell id="MG7vjCwYbkdOlMrGwm35-122" style="edgeStyle=orthogonalEdgeStyle;rounded=0;orthogonalLoop=1;jettySize=auto;html=1;fontSize=11;entryX=1;entryY=0.5;entryDx=0;entryDy=0;" edge="1" parent="77e6c97f196da883-1" source="MG7vjCwYbkdOlMrGwm35-78" target="MG7vjCwYbkdOlMrGwm35-119">
          <mxGeometry relative="1" as="geometry" />
        </mxCell>
        <mxCell id="MG7vjCwYbkdOlMrGwm35-123" style="edgeStyle=orthogonalEdgeStyle;rounded=0;orthogonalLoop=1;jettySize=auto;html=1;fontSize=11;exitX=0.5;exitY=1;exitDx=0;exitDy=0;entryX=0;entryY=0.5;entryDx=0;entryDy=0;" edge="1" parent="77e6c97f196da883-1" source="MG7vjCwYbkdOlMrGwm35-119" target="6iCR6SdlAm49ne0eKqpE-19">
          <mxGeometry relative="1" as="geometry">
            <Array as="points">
              <mxPoint x="85" y="554" />
              <mxPoint x="460" y="554" />
              <mxPoint x="460" y="520" />
            </Array>
          </mxGeometry>
        </mxCell>
        <mxCell id="MG7vjCwYbkdOlMrGwm35-124" style="edgeStyle=orthogonalEdgeStyle;rounded=0;orthogonalLoop=1;jettySize=auto;html=1;fontSize=11;entryX=1;entryY=0.5;entryDx=0;entryDy=0;" edge="1" parent="77e6c97f196da883-1" target="MG7vjCwYbkdOlMrGwm35-125">
          <mxGeometry relative="1" as="geometry">
            <mxPoint x="550" y="1070" as="targetPoint" />
            <mxPoint x="550" y="980" as="sourcePoint" />
            <Array as="points">
              <mxPoint x="550" y="1024" />
            </Array>
          </mxGeometry>
        </mxCell>
        <mxCell id="MG7vjCwYbkdOlMrGwm35-126" style="edgeStyle=orthogonalEdgeStyle;rounded=0;orthogonalLoop=1;jettySize=auto;html=1;fontSize=11;entryX=0;entryY=0.5;entryDx=0;entryDy=0;" edge="1" parent="77e6c97f196da883-1" source="MG7vjCwYbkdOlMrGwm35-125" target="MG7vjCwYbkdOlMrGwm35-127">
          <mxGeometry relative="1" as="geometry">
            <mxPoint x="85" y="1130" as="targetPoint" />
            <Array as="points">
              <mxPoint x="85" y="1160" />
            </Array>
          </mxGeometry>
        </mxCell>
        <mxCell id="MG7vjCwYbkdOlMrGwm35-132" style="edgeStyle=orthogonalEdgeStyle;rounded=0;orthogonalLoop=1;jettySize=auto;html=1;fontSize=11;" edge="1" parent="1">
          <mxGeometry relative="1" as="geometry">
            <mxPoint x="680" y="500" as="targetPoint" />
            <mxPoint x="680" y="500" as="sourcePoint" />
          </mxGeometry>
        </mxCell>
      </root>
    </mxGraphModel>
  </diagram>
</mxfile>
